<svg xmlns="http://www.w3.org/2000/svg" xmlns:xlink="http://www.w3.org/1999/xlink" width="2004" height="343" viewBox="0 0 2004 343">
  <defs>
    <style>
      .cls-1 {
        fill: #ddd;
      }

      .cls-1, .cls-2, .cls-3 {
        fill-rule: evenodd;
      }

      .cls-2 {
        fill: url(#linear-gradient);
      }

      .cls-3 {
        fill: url(#linear-gradient-2);
      }
    </style>
    <linearGradient id="linear-gradient" x1="483.265" y1="251.5" x2="483.265" gradientUnits="userSpaceOnUse">
      <stop offset="0" stop-color="#a7a8a8"/>
      <stop offset="1" stop-color="#fefefe"/>
    </linearGradient>
    <linearGradient id="linear-gradient-2" x1="1492.86" y1="213.438" x2="1492.86" y2="38.125" gradientUnits="userSpaceOnUse">
      <stop offset="0" stop-color="#1f8cd8"/>
      <stop offset="0.3" stop-color="#368ad3"/>
      <stop offset="0.713" stop-color="#47aef3"/>
      <stop offset="1" stop-color="#399ce1"/>
    </linearGradient>
  </defs>
  <path id="Illustrating_Lives" data-name="Illustrating Lives" class="cls-1" d="M633.2,342.306V290.445h-7.067v51.861H633.2Zm47.415,0v-4.741H657.773v-47.12h-7.066v51.861h29.9Zm43.525,0v-4.741H701.3v-47.12h-7.066v51.861h29.9Zm48.646-15.558v-36.3h-7.066v36.36q0,5.64-2.765,8.606t-8.5,2.969q-5.837,0-8.807-3.006t-2.97-8.645V290.445h-7.067v36.377q0,7.854,4.8,12.076t13.687,4.223q8.986,0,13.838-4.26t4.852-12.113h0ZM820.4,325.5a14.615,14.615,0,0,0-2.612-4.49,23.665,23.665,0,0,0-4.66-4.154,52.588,52.588,0,0,0-6.964-4.008,55.813,55.813,0,0,1-5.684-3.264,17.563,17.563,0,0,1-3.431-2.9,7.621,7.621,0,0,1-1.638-2.781,10.168,10.168,0,0,1-.41-2.931,5.931,5.931,0,0,1,.514-2.375,6.468,6.468,0,0,1,1.544-2.152,7.3,7.3,0,0,1,2.626-1.521,11.456,11.456,0,0,1,3.759-.557A11.141,11.141,0,0,1,809.78,296a17.974,17.974,0,0,1,4.581,4.742l6.145-2.519a25.056,25.056,0,0,0-2.868-3.583,15.542,15.542,0,0,0-7.988-4.428,26.4,26.4,0,0,0-5.837-.583,22.778,22.778,0,0,0-6.555.89,15.15,15.15,0,0,0-5.018,2.487,11.447,11.447,0,0,0-3.175,3.747,9.909,9.909,0,0,0-1.126,4.673,13.926,13.926,0,0,0,.717,4.639,11.759,11.759,0,0,0,2.355,3.9,21.129,21.129,0,0,0,4.3,3.6,69.126,69.126,0,0,0,6.452,3.672q7.067,3.636,9.73,6.9a10.944,10.944,0,0,1,2.662,7.049,6.188,6.188,0,0,1-2.662,5.231,12.01,12.01,0,0,1-7.272,1.966,10.877,10.877,0,0,1-6.554-1.927,16.653,16.653,0,0,1-4.711-5.7L786.4,332.9a17.781,17.781,0,0,0,6.606,7.557q4.248,2.667,11.01,2.667a26.087,26.087,0,0,0,7.216-.927,16.614,16.614,0,0,0,5.446-2.6,11.086,11.086,0,0,0,4.543-9.09A15.06,15.06,0,0,0,820.4,325.5ZM867,295.186v-4.741H830.952v4.741h14.44v47.12h7.067v-47.12H867Zm48.645,47.12-11.265-24.819a17.247,17.247,0,0,0,8.039-4.779,11.967,11.967,0,0,0,3.021-8.409,12.087,12.087,0,0,0-5.311-10.446,17.738,17.738,0,0,0-5.768-2.556,28.915,28.915,0,0,0-7.2-.852H880.006v51.861h7.067V318.82h5.146q1.647,0,3.087-.037t1.751-.037l10.806,23.56h7.783Zm-10.307-30.672q-3.036,2.445-8.9,2.445h-9.364V295.186h9.776q5.556,0,8.541,2.371a8.362,8.362,0,0,1,2.985,6.964A8.6,8.6,0,0,1,905.339,311.634Zm62.333,30.672-17-51.861h-7.579l-17,51.861h7.067l4.3-13.484H956.2l4.2,13.484h7.271Zm-13.006-18.225H938.894l3.994-12.926q1.126-3.64,2.253-7.5a65.488,65.488,0,0,0,1.639-6.761q0.613,2.9,1.69,6.687t2.2,7.5Zm53.564-28.9v-4.741H972.178v4.741h14.441v47.12h7.066v-47.12h14.545Zm20.58,47.12V290.445h-7.07v51.861h7.07Zm54.79,0V290.445h-6.76v32.413c0,0.963.02,1.915,0.05,2.853s0.07,1.815.11,2.63,0.05,1.47.05,1.963c-0.41-.741-0.9-1.593-1.48-2.556s-1.19-2.012-1.84-3.149-1.32-2.3-2.04-3.482-1.41-2.371-2.09-3.556l-16.21-27.116h-7.07v51.861h6.86V308.559c0-.963-0.01-1.913-0.05-2.852s-0.05-1.815-.05-2.63v-1.964q1.335,2.445,3.37,5.964t3.98,6.78l17.15,28.449h6.02Zm53.67-18.077v-8.3h-16.7v4.89h9.63v3.943q0,13.617-11.62,13.616a10.766,10.766,0,0,1-9.62-5.538q-3.45-5.538-3.44-16.466,0-10.854,3.33-16.43t9.37-5.575a9.854,9.854,0,0,1,6.09,1.816c1.6,1.21,3.16,3.4,4.66,6.556l6.45-2.074a26.046,26.046,0,0,0-2.61-4.48,15.506,15.506,0,0,0-3.53-3.5,16.144,16.144,0,0,0-4.71-2.262,21.4,21.4,0,0,0-6.15-.8,19.877,19.877,0,0,0-8.81,1.852,16.471,16.471,0,0,0-6.26,5.334,24.485,24.485,0,0,0-3.69,8.446,51.567,51.567,0,0,0,.02,22.3,24.453,24.453,0,0,0,3.7,8.409,16.662,16.662,0,0,0,6.16,5.3,19.256,19.256,0,0,0,8.73,1.852,22.667,22.667,0,0,0,8.37-1.407,15.787,15.787,0,0,0,9.44-9.891,23.217,23.217,0,0,0,1.19-7.594h0Zm68.41,18.077v-4.741h-22.84v-47.12h-7.07v51.861h29.91Zm21.19,0V290.445h-7.06v51.861h7.06Zm54.79-51.861h-7.17l-9.52,31.561q-1.125,3.557-2.05,7.15t-1.53,6.482q-0.615-2.889-1.49-6.445t-2-7.187l-9.52-31.561h-7.27l16.79,51.861h6.97Zm45.37,51.861v-4.741h-24.68V317.042h14.75v-4.89h-14.75V295.186h23.45v-4.741h-30.52v51.861h31.75Zm44.35-16.807a14.564,14.564,0,0,0-2.62-4.49,23.271,23.271,0,0,0-4.66-4.154,52.391,52.391,0,0,0-6.96-4.008,55.047,55.047,0,0,1-5.68-3.264,17.524,17.524,0,0,1-3.43-2.9,7.586,7.586,0,0,1-1.64-2.781,9.965,9.965,0,0,1-.41-2.931,5.976,5.976,0,0,1,.51-2.375,6.4,6.4,0,0,1,1.55-2.152,7.245,7.245,0,0,1,2.62-1.521,11.5,11.5,0,0,1,3.76-.557,11.123,11.123,0,0,1,6.33,1.63,17.833,17.833,0,0,1,4.58,4.742l6.15-2.519a24.859,24.859,0,0,0-2.87-3.583,15.516,15.516,0,0,0-7.99-4.428,26.315,26.315,0,0,0-5.83-.583,22.769,22.769,0,0,0-6.56.89,15.219,15.219,0,0,0-5.02,2.487,11.5,11.5,0,0,0-3.17,3.747,9.936,9.936,0,0,0-1.13,4.673,13.9,13.9,0,0,0,.72,4.639,11.692,11.692,0,0,0,2.35,3.9,21.259,21.259,0,0,0,4.3,3.6,69.486,69.486,0,0,0,6.46,3.672q7.065,3.636,9.73,6.9a10.963,10.963,0,0,1,2.66,7.049,6.2,6.2,0,0,1-2.66,5.231,12.028,12.028,0,0,1-7.28,1.966,10.865,10.865,0,0,1-6.55-1.927,16.551,16.551,0,0,1-4.71-5.7l-6.56,2.148a17.816,17.816,0,0,0,6.61,7.557q4.245,2.667,11.01,2.667a26.131,26.131,0,0,0,7.22-.927,16.551,16.551,0,0,0,5.44-2.6,11.125,11.125,0,0,0,4.55-9.09A15.189,15.189,0,0,0,1371.38,325.5Z"/>
  <path id="Globex" class="cls-2" d="M0.014,125.791c0,49.321,39.947,87.652,90.349,87.652,65.417,0,90.35-54.682,90.35-82.29V108.9H90.095v29.485h57.374c-6.7,28.682-29.223,45.569-57.106,45.569-30.3,0-57.641-25.465-57.641-58.167S60.068,67.625,90.363,67.625c19.035,0,35.39,8.846,46.114,24.392l25.737-19.3C143.447,49.13,117.173,38.14,90.363,38.14,39.96,38.14.014,76.471,0.014,125.791Zm197.322,84.167H325.757V160.266h-31.1v20.207H228.436V41.625h-31.1V209.958Zm133.246-84.167c0,49.321,39.947,87.652,90.35,87.652s90.35-38.331,90.35-87.652S471.335,38.14,420.932,38.14,330.582,76.471,330.582,125.791Zm19.305,0.986c0-40.281,33.527-71.648,70.671-71.648s70.671,31.367,70.671,71.648-33.528,71.646-70.671,71.646S349.887,167.057,349.887,126.777Zm180.967,83.181h95.98c29.491,0,51.743-18.763,51.743-48.784,0-21.444-12.6-35.383-30.027-41.012,12.6-5.629,20.644-17.959,20.644-33.506,0-30.021-22.789-45.032-48.526-45.032H530.854V209.958Zm31.1-138.848h55.229c13.674,0,20.912,8.845,20.912,18.763,0,10.186-7.238,19.031-20.912,19.031H561.953V71.11Zm0,67.279h61.4c13.941,0,24.129,9.114,24.129,21.176,0,11.8-10.188,20.908-24.129,20.908h-61.4V138.389Zm124.32,71.569H815.5V180.473H717.373V138.389h68.366V108.9H717.373V71.11H815.5V41.625H686.273V209.958Zm141.37,0H862.5l34.585-57.094,32.44,57.094h37l-51.743-84.167,51.743-84.166H931.666L897.082,98.719,864.641,41.625h-37l51.744,84.167Zm-270.209-26.48c-2.923,2.6-36.052,38.848-65.926,54.037-28.5,14.49-47.086,14-60.4,14-49.035,0-84.112-27.561-84.112-27.561s20.419,10.382,34.857,12.37c5.539,0.762,28.423,4.925,49.146,1.3,18.62-3.255,35.724-9.549,47.2-17.795,10.886-7.824,50.807-35.2,50.807-94.077,0-58.372-39.921-86.253-50.807-94.076-11.475-8.247-28.579-14.54-47.2-17.8-20.723-3.623-43.607.539-49.146,1.3-14.438,1.988-34.857,12.37-34.857,12.37S382.068-.009,431.1-0.009c13.319,0,31.906-.493,60.4,14,29.874,15.189,63,51.433,65.926,54.037m-96.489-3.413c-3.869,3.877-13.182,15.767-12.878,17.7,0.317,2.015-1.225,6.566-3.512,7.079-1.756.393-3.9-.2-3.513-2.36,2.162-11.98-.99-10.437-3.511-8.258-1.614,1.394-2.5,3.618-4.683,4.719-1.171.59-2.126,3.459-1.171,4.719,3.31,4.365.257,7.1-1.171,9.439-5.078,2.942-6.243,4.916-5.853,8.259s0.585,3.736,2.341,4.719,8.473,1.533,10.091-1.405c5.917-10.747,7.987-.863,12.153,1.405,4.176,2.759,11.807-2,17.56,3.54,1.84,1.769,2.986,2.767,4.683,2.359,14.457-3.477,22.03-16.088,15.219-11.8,0.425-.268,2.307-4.451,1.171-9.438C487.108,91.941,465.769,65.8,460.945,64.613Zm13.387,84.2c-0.829-3.826-7.61-3.736-8.195-2.36s-2.928,2.36-7.025,0-3.122-6.686-5.853-7.079-6.439-2.556-12.878,0c-3.743,1.486-4.1-.983-7.025-1.18s-6.634,5.506-8.194,5.9-7.415,1.377-9.366,5.9-3.707,10.028,0,15.337,8.781,8.652,17.56,11.8,1.591,15.169,2.342,17.7c-0.755.713,21.663,4.948,39.084-18.471C486.393,160.748,478.147,155.11,474.332,148.816Zm-96.008-16.008c3.71-1.164,3.034-7.964,1.622-8.432s-2.586-2.734-.608-7.052,6.338-3.714,6.49-6.491,1.969-6.686-1.116-12.929c-1.793-3.629.616-4.2,0.557-7.154s-3.742-2-4.347-3.5c-7.848-19.522-49.942,6.367-31.93,45.52C356.564,149.228,372.433,137.184,378.324,132.808Z"/>
  <path id="Designs" class="cls-3" d="M1291.91,180.473v29.485H1162.69V138.389h-20.52c-5.91,39.12-39.21,71.569-89.4,71.569H981.723V41.625h71.047c49.51,0,81.32,30.106,88.7,67.28h21.22V41.625h129.22V71.11h-98.12V108.9h68.37v29.485h-68.37v42.084h98.12ZM1052.77,71.11h-39.95V180.473h39.95c36.19,0,59.25-24.928,59.25-54.682S1088.96,71.11,1052.77,71.11Zm242.9,111.239a99.807,99.807,0,0,0,72.12,31.094c38.6,0,74.26-21.176,74.26-56.29,0-69.96-108.58-32.166-108.58-69.96,0-10.186,9.65-22.784,35.39-22.784,16.36,0,30.3,5.093,45.58,20.1l23.05-20.64c-16.62-16.887-39.14-25.733-67.02-25.733-38.34,0-69.71,20.64-69.71,50.661,0,68.62,108.58,32.434,108.58,69.96,0,16.083-16.62,24.928-40.21,25.2-19.57,0-37.27-9.382-49.87-22.784Zm165.42,27.609h31.1V41.625h-31.1V209.958Zm48.26-84.167c0,49.321,39.94,87.652,90.35,87.652,65.41,0,90.35-54.682,90.35-82.29V108.9h-80.62v29.485h47.37c-6.7,28.682-29.22,45.569-57.1,45.569-30.3,0-57.64-25.465-57.64-58.167s27.34-58.166,57.64-58.166c19.03,0,35.39,8.846,46.11,24.392l25.74-19.3c-18.77-23.588-45.04-34.578-71.85-34.578C1549.29,38.14,1509.35,76.471,1509.35,125.791Zm335.39,87.652V41.625h-31.1v103.2L1705.06,38.14V209.958h31.1V106.76Zm12.87-31.094a99.807,99.807,0,0,0,72.12,31.094c38.61,0,74.27-21.176,74.27-56.29,0-69.96-108.59-32.166-108.59-69.96,0-10.186,9.66-22.784,35.39-22.784,16.36,0,30.3,5.093,45.58,20.1l23.06-20.64c-16.62-16.887-39.15-25.733-67.03-25.733-38.34,0-69.7,20.64-69.7,50.661,0,68.62,108.58,32.434,108.58,69.96,0,16.083-16.63,24.928-40.22,25.2-19.57,0-37.26-9.382-49.86-22.784Z"/>
</svg>
